<svg xmlns="http://www.w3.org/2000/svg" version="1.1" xmlns:xlink="http://www.w3.org/1999/xlink" xmlns:svgjs="http://svgjs.dev/svgjs" width="1500" height="750" viewBox="0 0 1500 750"><g transform="matrix(1,0,0,1,-0.9090909090909918,-1.4916357955136732)"><svg viewBox="0 0 396 198" data-background-color="#000000" preserveAspectRatio="xMidYMid meet" height="750" width="1500" xmlns="http://www.w3.org/2000/svg" xmlns:xlink="http://www.w3.org/1999/xlink"><g id="tight-bounds" transform="matrix(1,0,0,1,0.2400000000000091,0.393791850015603)"><svg viewBox="0 0 395.52 197.2124162999688" height="197.2124162999688" width="395.52"><g><svg viewBox="0 0 395.52 197.2124162999688" height="197.2124162999688" width="395.52"><g transform="matrix(1,0,0,1,0,101.67599794400999)"><svg viewBox="0 0 395.52 95.5364183559588" height="95.5364183559588" width="395.52"><g id="textblocktransform"><svg viewBox="0 0 395.52 95.5364183559588" height="95.5364183559588" width="395.52" id="textblock"><g><svg viewBox="0 0 395.52 95.5364183559588" height="95.5364183559588" width="395.52"><g transform="matrix(1,0,0,1,0,0)"><svg width="395.52" viewBox="0.6471999999999998 -19.107210000000002 250.47019000000003 60.500134208973826" height="95.5364183559588" data-palette-color="url(#3960ed23-eb6a-47b5-a659-f7b39df44c1a)"></svg></g></svg></g></svg></g></svg></g><g transform="matrix(1,0,0,1,162.83988473841947,0)"><svg viewBox="0 0 69.84023052316101 95.5364183559588" height="95.5364183559588" width="69.84023052316101"><g><svg xmlns="http://www.w3.org/2000/svg" xmlns:xlink="http://www.w3.org/1999/xlink" version="1.1" x="0" y="0" viewBox="24.668 15.56966041023927 51.00000233514175 69.76433958976074" enable-background="new 0 0 100 100" xml:space="preserve" height="95.5364183559588" width="69.84023052316101" class="icon-icon-0" data-fill-palette-color="accent" id="icon-0"></svg></g></svg></g><g></g></svg></g><defs></defs><mask id="73377711-937d-4b2d-9967-688aec02051c"><g id="SvgjsG3605"><svg viewBox="0 0 395.52 197.2124162999688" height="197.2124162999688" width="395.52"><g><svg viewBox="0 0 395.52 197.2124162999688" height="197.2124162999688" width="395.52"><g transform="matrix(1,0,0,1,0,101.67599794400999)"><svg viewBox="0 0 395.52 95.5364183559588" height="95.5364183559588" width="395.52"><g id="SvgjsG3604"><svg viewBox="0 0 395.52 95.5364183559588" height="95.5364183559588" width="395.52" id="SvgjsSvg3603"><g><svg viewBox="0 0 395.52 95.5364183559588" height="95.5364183559588" width="395.52"><g transform="matrix(1,0,0,1,0,0)"><svg width="395.52" viewBox="0.6471999999999998 -19.107210000000002 250.47019000000003 60.500134208973826" height="95.5364183559588" data-palette-color="url(#3960ed23-eb6a-47b5-a659-f7b39df44c1a)"><path d="M5.131 15.224l-4.484-1.267 9.349-33.064 19.601 5.542-1.094 3.868-15.117-4.274-2.859 10.114 12.615 3.566-1.042 3.686-12.615-3.567zM32.144 22.744v0c-1.461-0.338-2.719-0.923-3.772-1.755-1.053-0.832-1.777-1.947-2.171-3.346-0.4-1.406-0.371-3.097 0.085-5.071v0l6.387-27.601 4.306 0.997-6.287 27.172c-0.398 1.721-0.336 3.077 0.187 4.067 0.529 0.998 1.429 1.645 2.703 1.939v0c0.604 0.14 1.218 0.207 1.842 0.2 0.624-0.006 1.167-0.059 1.627-0.157v0l0.243 3.741c-0.63 0.121-1.392 0.177-2.287 0.169-0.889-0.001-1.844-0.119-2.863-0.355zM50.8 26.252v0c-2.094-0.371-3.903-1.241-5.428-2.608-1.518-1.366-2.61-3.113-3.275-5.242-0.672-2.13-0.773-4.518-0.304-7.163v0c0.445-2.508 1.353-4.672 2.726-6.494 1.365-1.816 3.047-3.153 5.047-4.01 1.995-0.865 4.151-1.092 6.469-0.681v0c1.451 0.257 2.722 0.743 3.814 1.458 1.087 0.707 1.997 1.509 2.732 2.404v0l0.361-2.038 3.968 0.703-3.376 19.043c-0.218 1.228-0.06 2.078 0.472 2.552 0.524 0.479 1.141 0.781 1.85 0.907v0l-1.517 3.225c-3.092-0.548-4.736-2.136-4.934-4.765v0c-0.925 0.899-2.099 1.662-3.524 2.29-1.425 0.628-3.119 0.767-5.081 0.419zM52.451 22.554v0c1.221 0.216 2.433 0.123 3.635-0.28 1.201-0.396 2.253-0.982 3.155-1.756v0l2.39-13.48c-0.764-0.772-1.635-1.434-2.613-1.987-0.984-0.56-2.054-0.943-3.209-1.148v0c-1.549-0.275-2.982-0.119-4.297 0.467-1.315 0.579-2.434 1.508-3.358 2.787-0.925 1.285-1.554 2.863-1.886 4.733v0c-0.32 1.805-0.266 3.467 0.162 4.985 0.427 1.525 1.165 2.786 2.213 3.785 1.055 1 2.324 1.631 3.808 1.894zM79.563 41.276v0c-1.491-0.167-2.925-0.508-4.303-1.024-1.378-0.516-2.577-1.194-3.597-2.032v0l2.036-3.627c0.706 0.703 1.557 1.318 2.551 1.845 1.002 0.521 2.248 0.865 3.738 1.032v0c2.312 0.259 4.196-0.148 5.651-1.22 1.448-1.072 2.321-2.944 2.62-5.614v0l0.348-3.12c-0.737 0.709-1.753 1.343-3.05 1.903-1.298 0.566-2.791 0.755-4.48 0.565v0c-1.921-0.215-3.688-0.915-5.3-2.101-1.612-1.18-2.848-2.79-3.706-4.832-0.859-2.041-1.137-4.41-0.835-7.107v0c0.284-2.538 1.063-4.738 2.337-6.601 1.282-1.869 2.882-3.273 4.798-4.213 1.916-0.94 3.948-1.289 6.095-1.049v0c1.431 0.16 2.706 0.551 3.823 1.172 1.111 0.621 2.051 1.336 2.819 2.146v0l0.219-1.958 4.005 0.448-2.771 24.786c-0.313 2.796-1.057 5.017-2.234 6.663-1.17 1.647-2.672 2.78-4.506 3.4-1.827 0.621-3.913 0.8-6.258 0.538zM82.487 26.188v0c1.299 0.145 2.501-0.016 3.606-0.483 1.112-0.466 2.036-1.054 2.773-1.763v0l1.483-13.267c-0.657-0.603-1.465-1.173-2.425-1.71-0.966-0.537-2.115-0.88-3.447-1.029v0c-1.332-0.149-2.624 0.069-3.876 0.653-1.253 0.584-2.319 1.512-3.199 2.782-0.88 1.27-1.429 2.879-1.647 4.827v0c-0.207 1.855-0.023 3.506 0.554 4.952 0.576 1.446 1.409 2.609 2.497 3.489 1.089 0.88 2.316 1.396 3.681 1.549zM106.004 31.864l-4.417-0.156 1.214-34.339 6.526 0.231 8.746 22.063 10.142-21.395 6.666 0.235-1.214 34.339-4.657-0.165 1.004-28.402-9.904 20.323-4.617-0.164-8.485-20.973zM152.94 32.466v0c-2.124 0.109-4.082-0.332-5.876-1.322-1.786-0.99-3.243-2.448-4.369-4.372-1.133-1.925-1.768-4.229-1.905-6.912v0c-0.13-2.543 0.269-4.857 1.197-6.94 0.922-2.076 2.261-3.757 4.018-5.042 1.75-1.291 3.8-1.997 6.149-2.117v0c1.471-0.075 2.819 0.113 4.045 0.564 1.218 0.445 2.285 1.021 3.202 1.729v0l-0.106-2.067 4.025-0.206 0.988 19.315c0.064 1.245 0.408 2.038 1.033 2.38 0.619 0.349 1.287 0.505 2.006 0.468v0l-0.753 3.483c-3.136 0.16-5.095-1.018-5.878-3.534v0c-0.699 1.084-1.672 2.091-2.919 3.023-1.247 0.932-2.866 1.448-4.857 1.55zM153.718 28.491v0c1.238-0.063 2.398-0.426 3.478-1.089 1.081-0.656 1.975-1.463 2.68-2.42v0l-0.699-13.672c-0.918-0.581-1.915-1.03-2.993-1.349-1.085-0.325-2.213-0.458-3.385-0.398v0c-1.571 0.08-2.932 0.554-4.082 1.421-1.151 0.86-2.033 2.016-2.647 3.469-0.613 1.46-0.871 3.139-0.773 5.036v0c0.094 1.831 0.52 3.438 1.278 4.821 0.759 1.39 1.761 2.453 3.007 3.191 1.253 0.737 2.631 1.067 4.136 0.99zM181.069 30.195v0c-1.921 0.217-3.681 0.167-5.28-0.149-1.598-0.309-2.945-0.798-4.04-1.466v0l1.436-3.866c0.929 0.62 2.062 1.092 3.4 1.418 1.338 0.325 2.739 0.405 4.204 0.24v0c1.822-0.206 3.159-0.662 4.011-1.368 0.859-0.707 1.236-1.532 1.13-2.472v0c-0.077-0.682-0.314-1.266-0.71-1.751-0.403-0.478-1.086-0.917-2.051-1.319-0.971-0.4-2.351-0.798-4.14-1.193v0c-2.463-0.541-4.351-1.307-5.664-2.3-1.312-0.986-2.08-2.472-2.304-4.46v0c-0.22-1.948 0.445-3.693 1.995-5.236 1.557-1.544 3.845-2.487 6.867-2.828v0c1.63-0.184 3.097-0.175 4.401 0.027 1.311 0.201 2.499 0.503 3.564 0.906v0l-0.816 3.745c-0.933-0.418-1.981-0.726-3.143-0.923-1.156-0.198-2.417-0.22-3.781-0.067v0c-1.689 0.191-2.936 0.677-3.74 1.459-0.797 0.781-1.15 1.579-1.059 2.393v0c0.087 0.775 0.504 1.402 1.249 1.882 0.744 0.473 2.144 0.922 4.198 1.348v0c3.341 0.71 5.721 1.646 7.139 2.807 1.412 1.156 2.228 2.711 2.449 4.665v0c0.256 2.272-0.459 4.171-2.145 5.697-1.693 1.526-4.083 2.463-7.17 2.811zM206.546 26.54v0c-2.42 0.4-4.467-0.083-6.139-1.449-1.665-1.367-2.743-3.537-3.235-6.509v0l-1.952-11.81-4.36 0.721-0.625-3.779 4.46-0.737-0.396-8.094 3.345-0.553 1.313 7.942 6.975-1.152 0.625 3.778-6.976 1.153 2.009 12.155c0.309 1.868 0.919 3.108 1.832 3.721 0.912 0.613 1.917 0.828 3.015 0.647v0c0.809-0.134 1.554-0.389 2.236-0.764 0.688-0.377 1.308-0.794 1.861-1.251v0l1.789 3.283c-0.58 0.495-1.389 1.017-2.427 1.566-1.036 0.556-2.153 0.934-3.35 1.132zM226.579 22.544v0c-3.586 0.766-6.673 0.23-9.261-1.61-2.582-1.841-4.314-4.825-5.196-8.952v0c-0.534-2.497-0.538-4.831-0.014-7.002 0.525-2.171 1.513-4.005 2.966-5.501 1.451-1.503 3.295-2.494 5.531-2.972v0c2.406-0.514 4.512-0.419 6.319 0.286 1.807 0.705 3.297 1.852 4.469 3.442 1.178 1.589 1.993 3.439 2.444 5.551v0c0.238 1.115 0.421 2.211 0.549 3.288v0l-17.465 3.733c0.787 2.279 1.992 3.93 3.615 4.954 1.623 1.023 3.54 1.299 5.75 0.826v0c1.441-0.308 2.703-0.734 3.786-1.279 1.088-0.553 2.109-1.184 3.062-1.892v0l1.797 3.481c-1.044 0.762-2.247 1.462-3.61 2.101-1.368 0.647-2.949 1.162-4.742 1.546zM216.123 9.317v0l13.681-2.924c-0.52-2.432-1.529-4.173-3.028-5.223-1.494-1.058-3.314-1.357-5.458-0.899v0c-1.858 0.397-3.258 1.375-4.2 2.933-0.935 1.557-1.267 3.594-0.995 6.113zM247.45 16.883l-4.268 1.149-6.637-24.652 4.123-1.11 1.443 5.359c0.131-1.154 0.423-2.275 0.875-3.363 0.453-1.088 1.126-2.05 2.02-2.884 0.894-0.834 2.036-1.439 3.426-1.814v0c0.47-0.127 0.95-0.228 1.44-0.304 0.482-0.081 0.897-0.117 1.245-0.108v0l-0.098 4.749c-0.666-0.09-1.411-0.024-2.236 0.198v0c-1.172 0.315-2.196 0.947-3.073 1.894-0.877 0.947-1.47 2.208-1.778 3.783-0.302 1.572-0.163 3.434 0.416 5.583v0z" opacity="1" transform="matrix(1,0,0,1,0,0)" fill="white" class="wordmark-text-0" id="SvgjsPath3602"></path></svg></g></svg></g></svg></g></svg></g><g transform="matrix(1,0,0,1,162.83988473841947,0)"><svg viewBox="0 0 69.84023052316101 95.5364183559588" height="95.5364183559588" width="69.84023052316101"><g><svg xmlns="http://www.w3.org/2000/svg" xmlns:xlink="http://www.w3.org/1999/xlink" version="1.1" x="0" y="0" viewBox="24.668 15.56966041023927 51.00000233514175 69.76433958976074" enable-background="new 0 0 100 100" xml:space="preserve" height="95.5364183559588" width="69.84023052316101" class="icon-icon-0" data-fill-palette-color="accent" id="SvgjsSvg3601"><path fill="black" d="M75.668 23A3.997 3.997 0 0 0 69.685 19.527C67.528 20.761 58.317 24.435 52.681 19.887 41.072 10.522 27.104 19.253 26.516 19.63 25.228 20.453 24.592 21.888 24.705 23.312 24.694 23.431 24.668 23.545 24.668 23.667V81.334A4 4 0 0 0 32.668 81.334V58.739C35.811 57.3 42.375 55.185 47.657 59.447 51.321 62.403 55.594 63.415 59.659 63.415 65.642 63.415 71.177 61.223 73.652 59.807A4 4 0 0 0 75.634 55.831C75.644 55.72 75.667 55.613 75.667 55.5V23zM52.681 53.221C45.729 47.611 37.934 48.494 32.668 50.185V25.4C35.821 23.947 42.363 21.84 47.657 26.113 53.907 31.155 61.928 30.542 67.668 28.896V53.79C64.038 55.222 57.209 56.876 52.681 53.221"></path></svg></g></svg></g><g></g></svg></g><defs><mask></mask></defs></svg><rect width="395.52" height="197.2124162999688" fill="black" stroke="none" visibility="hidden"></rect></g></mask><linearGradient x1="0" x2="1" y1="0.548" y2="0.55" id="3960ed23-eb6a-47b5-a659-f7b39df44c1a"><stop stop-color="#ff6cab" offset="0"></stop><stop stop-color="#7366ff" offset="1"></stop></linearGradient><rect width="395.52" height="197.2124162999688" fill="url(#3960ed23-eb6a-47b5-a659-f7b39df44c1a)" mask="url(#73377711-937d-4b2d-9967-688aec02051c)" data-fill-palette-color="primary"></rect><mask id="2daa9ea7-90bc-4e94-9684-1207509a1400"><g id="SvgjsG3624"><svg viewBox="0 0 395.52 197.2124162999688" height="197.2124162999688" width="395.52"><g><svg viewBox="0 0 395.52 197.2124162999688" height="197.2124162999688" width="395.52"><g transform="matrix(1,0,0,1,0,101.67599794400999)"><svg viewBox="0 0 395.52 95.5364183559588" height="95.5364183559588" width="395.52"><g id="SvgjsG3623"><svg viewBox="0 0 395.52 95.5364183559588" height="95.5364183559588" width="395.52" id="SvgjsSvg3622"><g><svg viewBox="0 0 395.52 95.5364183559588" height="95.5364183559588" width="395.52"><g transform="matrix(1,0,0,1,0,0)"><svg width="395.52" viewBox="0.6471999999999998 -19.107210000000002 250.47019000000003 60.500134208973826" height="95.5364183559588" data-palette-color="url(#3960ed23-eb6a-47b5-a659-f7b39df44c1a)"></svg></g></svg></g></svg></g></svg></g><g transform="matrix(1,0,0,1,162.83988473841947,0)"><svg viewBox="0 0 69.84023052316101 95.5364183559588" height="95.5364183559588" width="69.84023052316101"><g><svg xmlns="http://www.w3.org/2000/svg" xmlns:xlink="http://www.w3.org/1999/xlink" version="1.1" x="0" y="0" viewBox="24.668 15.56966041023927 51.00000233514175 69.76433958976074" enable-background="new 0 0 100 100" xml:space="preserve" height="95.5364183559588" width="69.84023052316101" class="icon-icon-0" data-fill-palette-color="accent" id="SvgjsSvg3621"><path fill="white" d="M75.668 23A3.997 3.997 0 0 0 69.685 19.527C67.528 20.761 58.317 24.435 52.681 19.887 41.072 10.522 27.104 19.253 26.516 19.63 25.228 20.453 24.592 21.888 24.705 23.312 24.694 23.431 24.668 23.545 24.668 23.667V81.334A4 4 0 0 0 32.668 81.334V58.739C35.811 57.3 42.375 55.185 47.657 59.447 51.321 62.403 55.594 63.415 59.659 63.415 65.642 63.415 71.177 61.223 73.652 59.807A4 4 0 0 0 75.634 55.831C75.644 55.72 75.667 55.613 75.667 55.5V23zM52.681 53.221C45.729 47.611 37.934 48.494 32.668 50.185V25.4C35.821 23.947 42.363 21.84 47.657 26.113 53.907 31.155 61.928 30.542 67.668 28.896V53.79C64.038 55.222 57.209 56.876 52.681 53.221"></path></svg></g></svg></g><g></g></svg></g><defs><mask></mask></defs><mask><g id="SvgjsG3620"><svg viewBox="0 0 395.52 197.2124162999688" height="197.2124162999688" width="395.52"><g><svg viewBox="0 0 395.52 197.2124162999688" height="197.2124162999688" width="395.52"><g transform="matrix(1,0,0,1,0,101.67599794400999)"><svg viewBox="0 0 395.52 95.5364183559588" height="95.5364183559588" width="395.52"><g id="SvgjsG3619"><svg viewBox="0 0 395.52 95.5364183559588" height="95.5364183559588" width="395.52" id="SvgjsSvg3618"><g><svg viewBox="0 0 395.52 95.5364183559588" height="95.5364183559588" width="395.52"><g transform="matrix(1,0,0,1,0,0)"><svg width="395.52" viewBox="0.6471999999999998 -19.107210000000002 250.47019000000003 60.500134208973826" height="95.5364183559588" data-palette-color="url(#3960ed23-eb6a-47b5-a659-f7b39df44c1a)"><path d="M5.131 15.224l-4.484-1.267 9.349-33.064 19.601 5.542-1.094 3.868-15.117-4.274-2.859 10.114 12.615 3.566-1.042 3.686-12.615-3.567zM32.144 22.744v0c-1.461-0.338-2.719-0.923-3.772-1.755-1.053-0.832-1.777-1.947-2.171-3.346-0.4-1.406-0.371-3.097 0.085-5.071v0l6.387-27.601 4.306 0.997-6.287 27.172c-0.398 1.721-0.336 3.077 0.187 4.067 0.529 0.998 1.429 1.645 2.703 1.939v0c0.604 0.14 1.218 0.207 1.842 0.2 0.624-0.006 1.167-0.059 1.627-0.157v0l0.243 3.741c-0.63 0.121-1.392 0.177-2.287 0.169-0.889-0.001-1.844-0.119-2.863-0.355zM50.8 26.252v0c-2.094-0.371-3.903-1.241-5.428-2.608-1.518-1.366-2.61-3.113-3.275-5.242-0.672-2.13-0.773-4.518-0.304-7.163v0c0.445-2.508 1.353-4.672 2.726-6.494 1.365-1.816 3.047-3.153 5.047-4.01 1.995-0.865 4.151-1.092 6.469-0.681v0c1.451 0.257 2.722 0.743 3.814 1.458 1.087 0.707 1.997 1.509 2.732 2.404v0l0.361-2.038 3.968 0.703-3.376 19.043c-0.218 1.228-0.06 2.078 0.472 2.552 0.524 0.479 1.141 0.781 1.85 0.907v0l-1.517 3.225c-3.092-0.548-4.736-2.136-4.934-4.765v0c-0.925 0.899-2.099 1.662-3.524 2.29-1.425 0.628-3.119 0.767-5.081 0.419zM52.451 22.554v0c1.221 0.216 2.433 0.123 3.635-0.28 1.201-0.396 2.253-0.982 3.155-1.756v0l2.39-13.48c-0.764-0.772-1.635-1.434-2.613-1.987-0.984-0.56-2.054-0.943-3.209-1.148v0c-1.549-0.275-2.982-0.119-4.297 0.467-1.315 0.579-2.434 1.508-3.358 2.787-0.925 1.285-1.554 2.863-1.886 4.733v0c-0.32 1.805-0.266 3.467 0.162 4.985 0.427 1.525 1.165 2.786 2.213 3.785 1.055 1 2.324 1.631 3.808 1.894zM79.563 41.276v0c-1.491-0.167-2.925-0.508-4.303-1.024-1.378-0.516-2.577-1.194-3.597-2.032v0l2.036-3.627c0.706 0.703 1.557 1.318 2.551 1.845 1.002 0.521 2.248 0.865 3.738 1.032v0c2.312 0.259 4.196-0.148 5.651-1.22 1.448-1.072 2.321-2.944 2.62-5.614v0l0.348-3.12c-0.737 0.709-1.753 1.343-3.05 1.903-1.298 0.566-2.791 0.755-4.48 0.565v0c-1.921-0.215-3.688-0.915-5.3-2.101-1.612-1.18-2.848-2.79-3.706-4.832-0.859-2.041-1.137-4.41-0.835-7.107v0c0.284-2.538 1.063-4.738 2.337-6.601 1.282-1.869 2.882-3.273 4.798-4.213 1.916-0.94 3.948-1.289 6.095-1.049v0c1.431 0.16 2.706 0.551 3.823 1.172 1.111 0.621 2.051 1.336 2.819 2.146v0l0.219-1.958 4.005 0.448-2.771 24.786c-0.313 2.796-1.057 5.017-2.234 6.663-1.17 1.647-2.672 2.78-4.506 3.4-1.827 0.621-3.913 0.8-6.258 0.538zM82.487 26.188v0c1.299 0.145 2.501-0.016 3.606-0.483 1.112-0.466 2.036-1.054 2.773-1.763v0l1.483-13.267c-0.657-0.603-1.465-1.173-2.425-1.71-0.966-0.537-2.115-0.88-3.447-1.029v0c-1.332-0.149-2.624 0.069-3.876 0.653-1.253 0.584-2.319 1.512-3.199 2.782-0.88 1.27-1.429 2.879-1.647 4.827v0c-0.207 1.855-0.023 3.506 0.554 4.952 0.576 1.446 1.409 2.609 2.497 3.489 1.089 0.88 2.316 1.396 3.681 1.549zM106.004 31.864l-4.417-0.156 1.214-34.339 6.526 0.231 8.746 22.063 10.142-21.395 6.666 0.235-1.214 34.339-4.657-0.165 1.004-28.402-9.904 20.323-4.617-0.164-8.485-20.973zM152.94 32.466v0c-2.124 0.109-4.082-0.332-5.876-1.322-1.786-0.99-3.243-2.448-4.369-4.372-1.133-1.925-1.768-4.229-1.905-6.912v0c-0.13-2.543 0.269-4.857 1.197-6.94 0.922-2.076 2.261-3.757 4.018-5.042 1.75-1.291 3.8-1.997 6.149-2.117v0c1.471-0.075 2.819 0.113 4.045 0.564 1.218 0.445 2.285 1.021 3.202 1.729v0l-0.106-2.067 4.025-0.206 0.988 19.315c0.064 1.245 0.408 2.038 1.033 2.38 0.619 0.349 1.287 0.505 2.006 0.468v0l-0.753 3.483c-3.136 0.16-5.095-1.018-5.878-3.534v0c-0.699 1.084-1.672 2.091-2.919 3.023-1.247 0.932-2.866 1.448-4.857 1.55zM153.718 28.491v0c1.238-0.063 2.398-0.426 3.478-1.089 1.081-0.656 1.975-1.463 2.68-2.42v0l-0.699-13.672c-0.918-0.581-1.915-1.03-2.993-1.349-1.085-0.325-2.213-0.458-3.385-0.398v0c-1.571 0.08-2.932 0.554-4.082 1.421-1.151 0.86-2.033 2.016-2.647 3.469-0.613 1.46-0.871 3.139-0.773 5.036v0c0.094 1.831 0.52 3.438 1.278 4.821 0.759 1.39 1.761 2.453 3.007 3.191 1.253 0.737 2.631 1.067 4.136 0.99zM181.069 30.195v0c-1.921 0.217-3.681 0.167-5.28-0.149-1.598-0.309-2.945-0.798-4.04-1.466v0l1.436-3.866c0.929 0.62 2.062 1.092 3.4 1.418 1.338 0.325 2.739 0.405 4.204 0.24v0c1.822-0.206 3.159-0.662 4.011-1.368 0.859-0.707 1.236-1.532 1.13-2.472v0c-0.077-0.682-0.314-1.266-0.71-1.751-0.403-0.478-1.086-0.917-2.051-1.319-0.971-0.4-2.351-0.798-4.14-1.193v0c-2.463-0.541-4.351-1.307-5.664-2.3-1.312-0.986-2.08-2.472-2.304-4.46v0c-0.22-1.948 0.445-3.693 1.995-5.236 1.557-1.544 3.845-2.487 6.867-2.828v0c1.63-0.184 3.097-0.175 4.401 0.027 1.311 0.201 2.499 0.503 3.564 0.906v0l-0.816 3.745c-0.933-0.418-1.981-0.726-3.143-0.923-1.156-0.198-2.417-0.22-3.781-0.067v0c-1.689 0.191-2.936 0.677-3.74 1.459-0.797 0.781-1.15 1.579-1.059 2.393v0c0.087 0.775 0.504 1.402 1.249 1.882 0.744 0.473 2.144 0.922 4.198 1.348v0c3.341 0.71 5.721 1.646 7.139 2.807 1.412 1.156 2.228 2.711 2.449 4.665v0c0.256 2.272-0.459 4.171-2.145 5.697-1.693 1.526-4.083 2.463-7.17 2.811zM206.546 26.54v0c-2.42 0.4-4.467-0.083-6.139-1.449-1.665-1.367-2.743-3.537-3.235-6.509v0l-1.952-11.81-4.36 0.721-0.625-3.779 4.46-0.737-0.396-8.094 3.345-0.553 1.313 7.942 6.975-1.152 0.625 3.778-6.976 1.153 2.009 12.155c0.309 1.868 0.919 3.108 1.832 3.721 0.912 0.613 1.917 0.828 3.015 0.647v0c0.809-0.134 1.554-0.389 2.236-0.764 0.688-0.377 1.308-0.794 1.861-1.251v0l1.789 3.283c-0.58 0.495-1.389 1.017-2.427 1.566-1.036 0.556-2.153 0.934-3.35 1.132zM226.579 22.544v0c-3.586 0.766-6.673 0.23-9.261-1.61-2.582-1.841-4.314-4.825-5.196-8.952v0c-0.534-2.497-0.538-4.831-0.014-7.002 0.525-2.171 1.513-4.005 2.966-5.501 1.451-1.503 3.295-2.494 5.531-2.972v0c2.406-0.514 4.512-0.419 6.319 0.286 1.807 0.705 3.297 1.852 4.469 3.442 1.178 1.589 1.993 3.439 2.444 5.551v0c0.238 1.115 0.421 2.211 0.549 3.288v0l-17.465 3.733c0.787 2.279 1.992 3.93 3.615 4.954 1.623 1.023 3.54 1.299 5.75 0.826v0c1.441-0.308 2.703-0.734 3.786-1.279 1.088-0.553 2.109-1.184 3.062-1.892v0l1.797 3.481c-1.044 0.762-2.247 1.462-3.61 2.101-1.368 0.647-2.949 1.162-4.742 1.546zM216.123 9.317v0l13.681-2.924c-0.52-2.432-1.529-4.173-3.028-5.223-1.494-1.058-3.314-1.357-5.458-0.899v0c-1.858 0.397-3.258 1.375-4.2 2.933-0.935 1.557-1.267 3.594-0.995 6.113zM247.45 16.883l-4.268 1.149-6.637-24.652 4.123-1.11 1.443 5.359c0.131-1.154 0.423-2.275 0.875-3.363 0.453-1.088 1.126-2.05 2.02-2.884 0.894-0.834 2.036-1.439 3.426-1.814v0c0.47-0.127 0.95-0.228 1.44-0.304 0.482-0.081 0.897-0.117 1.245-0.108v0l-0.098 4.749c-0.666-0.09-1.411-0.024-2.236 0.198v0c-1.172 0.315-2.196 0.947-3.073 1.894-0.877 0.947-1.47 2.208-1.778 3.783-0.302 1.572-0.163 3.434 0.416 5.583v0z" opacity="1" transform="matrix(1,0,0,1,0,0)" fill="black" class="wordmark-text-0" id="SvgjsPath3617"></path></svg></g></svg></g></svg></g></svg></g><g transform="matrix(1,0,0,1,162.83988473841947,0)"><svg viewBox="0 0 69.84023052316101 95.5364183559588" height="95.5364183559588" width="69.84023052316101"><g><svg xmlns="http://www.w3.org/2000/svg" xmlns:xlink="http://www.w3.org/1999/xlink" version="1.1" x="0" y="0" viewBox="24.668 15.56966041023927 51.00000233514175 69.76433958976074" enable-background="new 0 0 100 100" xml:space="preserve" height="95.5364183559588" width="69.84023052316101" class="icon-icon-0" data-fill-palette-color="accent" id="SvgjsSvg3616"><path fill="black" d="M75.668 23A3.997 3.997 0 0 0 69.685 19.527C67.528 20.761 58.317 24.435 52.681 19.887 41.072 10.522 27.104 19.253 26.516 19.63 25.228 20.453 24.592 21.888 24.705 23.312 24.694 23.431 24.668 23.545 24.668 23.667V81.334A4 4 0 0 0 32.668 81.334V58.739C35.811 57.3 42.375 55.185 47.657 59.447 51.321 62.403 55.594 63.415 59.659 63.415 65.642 63.415 71.177 61.223 73.652 59.807A4 4 0 0 0 75.634 55.831C75.644 55.72 75.667 55.613 75.667 55.5V23zM52.681 53.221C45.729 47.611 37.934 48.494 32.668 50.185V25.4C35.821 23.947 42.363 21.84 47.657 26.113 53.907 31.155 61.928 30.542 67.668 28.896V53.79C64.038 55.222 57.209 56.876 52.681 53.221"></path></svg></g></svg></g><g></g></svg></g><defs><mask></mask></defs></svg><rect width="395.52" height="197.2124162999688" fill="black" stroke="none" visibility="hidden"></rect></g></mask></svg><rect width="395.52" height="197.2124162999688" fill="black" stroke="none" visibility="hidden"></rect></g></mask><linearGradient x1="0" x2="1" y1="0.548" y2="0.55" id="12174ec5-38a4-4cd7-870d-258bb9b952e3"><stop stop-color="#ff6cab" offset="0"></stop><stop stop-color="#7366ff" offset="1"></stop></linearGradient><rect width="395.52" height="197.2124162999688" fill="url(#12174ec5-38a4-4cd7-870d-258bb9b952e3)" mask="url(#2daa9ea7-90bc-4e94-9684-1207509a1400)" data-fill-palette-color="accent"></rect></svg><rect width="395.52" height="197.2124162999688" fill="none" stroke="none" visibility="hidden"></rect></g></svg></g></svg>