<svg xmlns="http://www.w3.org/2000/svg" version="1.1" xmlns:xlink="http://www.w3.org/1999/xlink" xmlns:svgjs="http://svgjs.dev/svgjs" width="1500" height="439" viewBox="0 0 1500 439"><g transform="matrix(1,0,0,1,-0.9090909090909918,-0.4538887022895324)"><svg viewBox="0 0 396 116" data-background-color="#000000" preserveAspectRatio="xMidYMid meet" height="439" width="1500" xmlns="http://www.w3.org/2000/svg" xmlns:xlink="http://www.w3.org/1999/xlink"><g id="tight-bounds" transform="matrix(1,0,0,1,0.2400000000000091,0.11993414456853202)"><svg viewBox="0 0 395.52 115.76013171086296" height="115.76013171086296" width="395.52"><g><svg viewBox="0 0 584.0129221556493 170.92792473094642" height="115.76013171086296" width="395.52"><g transform="matrix(1,0,0,1,188.49292215564935,48.26196507497582)"><svg viewBox="0 0 395.52 74.40399458099478" height="74.40399458099478" width="395.52"><g id="textblocktransform"><svg viewBox="0 0 395.52 74.40399458099478" height="74.40399458099478" width="395.52" id="textblock"><g><svg viewBox="0 0 395.52 74.40399458099478" height="74.40399458099478" width="395.52"><g transform="matrix(1,0,0,1,0,0)"><svg width="395.52" viewBox="4.5 -37 258.33 48.6" height="74.40399458099478" data-palette-color="url(#897f5153-e7db-4797-996d-753ea3cd242f)"></svg></g></svg></g></svg></g></svg></g><g><svg viewBox="0 0 170.92792473094642 170.92792473094642" height="170.92792473094642" width="170.92792473094642"><g><svg></svg></g><g id="icon-0"><svg viewBox="0 0 170.92792473094642 170.92792473094642" height="170.92792473094642" width="170.92792473094642"><g></g><g transform="matrix(1,0,0,1,39.18474944571026,22.1573235762338)"><svg viewBox="0 0 92.5584258395259 126.61327757847882" height="126.61327757847882" width="92.5584258395259"><g><svg xmlns="http://www.w3.org/2000/svg" xmlns:xlink="http://www.w3.org/1999/xlink" version="1.1" x="0" y="0" viewBox="24.668 15.56966041023927 51.00000233514175 69.76433958976074" enable-background="new 0 0 100 100" xml:space="preserve" height="126.61327757847882" width="92.5584258395259" class="icon-dxe-0" data-fill-palette-color="quaternary" id="dxe-0"><path fill="#000000" d="M75.668 23A3.997 3.997 0 0 0 69.685 19.527C67.528 20.761 58.317 24.435 52.681 19.887 41.072 10.522 27.104 19.253 26.516 19.63 25.228 20.453 24.592 21.888 24.705 23.312 24.694 23.431 24.668 23.545 24.668 23.667V81.334A4 4 0 0 0 32.668 81.334V58.739C35.811 57.3 42.375 55.185 47.657 59.447 51.321 62.403 55.594 63.415 59.659 63.415 65.642 63.415 71.177 61.223 73.652 59.807A4 4 0 0 0 75.634 55.831C75.644 55.72 75.667 55.613 75.667 55.5V23zM52.681 53.221C45.729 47.611 37.934 48.494 32.668 50.185V25.4C35.821 23.947 42.363 21.84 47.657 26.113 53.907 31.155 61.928 30.542 67.668 28.896V53.79C64.038 55.222 57.209 56.876 52.681 53.221" data-fill-palette-color="quaternary"></path></svg></g></svg></g></svg></g></svg></g></svg></g><defs></defs><mask id="f59c137f-631f-4eb2-9a46-350ae3ab22cc"><g id="SvgjsG3834"><svg viewBox="0 0 395.52 115.76013171086296" height="115.76013171086296" width="395.52"><g><svg viewBox="0 0 584.0129221556493 170.92792473094642" height="115.76013171086296" width="395.52"><g transform="matrix(1,0,0,1,188.49292215564935,48.26196507497582)"><svg viewBox="0 0 395.52 74.40399458099478" height="74.40399458099478" width="395.52"><g id="SvgjsG3833"><svg viewBox="0 0 395.52 74.40399458099478" height="74.40399458099478" width="395.52" id="SvgjsSvg3832"><g><svg viewBox="0 0 395.52 74.40399458099478" height="74.40399458099478" width="395.52"><g transform="matrix(1,0,0,1,0,0)"><svg width="395.52" viewBox="4.5 -37 258.33 48.6" height="74.40399458099478" data-palette-color="url(#897f5153-e7db-4797-996d-753ea3cd242f)"><path d="M9.25 0L4.5 0 4.5-35 25.25-35 25.25-30.9 9.25-30.9 9.25-20.2 22.6-20.2 22.6-16.3 9.25-16.3 9.25 0ZM37.15 0.6L37.15 0.6Q34.85 0.6 33-0.28 31.15-1.15 30.07-3.1 29-5.05 29-8.15L29-8.15 29-37 33.5-37 33.5-8.6Q33.5-5.9 34.62-4.6 35.75-3.3 37.75-3.3L37.75-3.3Q38.7-3.3 39.62-3.53 40.55-3.75 41.2-4.05L41.2-4.05 42.3-0.4Q41.4 0 40.07 0.3 38.75 0.6 37.15 0.6ZM55.75 0.6L55.75 0.6Q52.5 0.6 49.84-1.05 47.2-2.7 45.62-5.73 44.05-8.75 44.05-12.85L44.05-12.85Q44.05-16.75 45.62-19.85 47.2-22.95 49.97-24.78 52.75-26.6 56.34-26.6L56.34-26.6Q58.59-26.6 60.42-25.83 62.25-25.05 63.59-23.9L63.59-23.9 63.59-26 67.7-26 67.7-6.3Q67.7-4.4 68.62-3.83 69.55-3.25 70.65-3.25L70.65-3.25 69.7 0.25Q64.9 0.25 63.9-3.65L63.9-3.65Q62.75-2.05 60.77-0.73 58.8 0.6 55.75 0.6ZM56.75-3.4L56.75-3.4Q58.65-3.4 60.34-4.33 62.05-5.25 63.2-6.65L63.2-6.65 63.2-20.6Q61.84-21.55 60.22-22.13 58.59-22.7 56.8-22.7L56.8-22.7Q54.4-22.7 52.57-21.48 50.75-20.25 49.7-18.07 48.65-15.9 48.65-13L48.65-13Q48.65-10.2 49.7-8.03 50.75-5.85 52.59-4.63 54.45-3.4 56.75-3.4ZM85.69 11.6L85.69 11.6Q83.39 11.6 81.22 11.05 79.04 10.5 77.34 9.4L77.34 9.4 78.99 5.5Q80.19 6.45 81.79 7.08 83.39 7.7 85.69 7.7L85.69 7.7Q89.24 7.7 91.27 5.83 93.29 3.95 93.29-0.15L93.29-0.15 93.29-3.35Q92.29-2.15 90.42-1.07 88.54 0 85.94 0L85.94 0Q82.99 0 80.34-1.53 77.69-3.05 76.04-6 74.39-8.95 74.39-13.1L74.39-13.1Q74.39-17 76.02-20.05 77.64-23.1 80.39-24.85 83.14-26.6 86.44-26.6L86.44-26.6Q88.64-26.6 90.44-25.85 92.24-25.1 93.54-24L93.54-24 93.54-26 97.64-26 97.64-0.6Q97.64 3.7 96.14 6.4 94.64 9.1 91.97 10.35 89.29 11.6 85.69 11.6ZM86.94-4L86.94-4Q88.94-4 90.54-4.9 92.14-5.8 93.14-7L93.14-7 93.14-20.6Q92.04-21.4 90.49-22.05 88.94-22.7 86.89-22.7L86.89-22.7Q84.84-22.7 83.04-21.6 81.24-20.5 80.12-18.43 78.99-16.35 78.99-13.35L78.99-13.35Q78.99-10.5 80.12-8.4 81.24-6.3 83.04-5.15 84.84-4 86.94-4ZM110.39 0L105.89 0 105.89-35 112.54-35 122.24-12.85 131.79-35 138.59-35 138.59 0 133.84 0 133.84-28.95 124.49-7.9 119.79-7.9 110.39-28.95 110.39 0ZM157.04 0.6L157.04 0.6Q153.79 0.6 151.14-1.05 148.49-2.7 146.91-5.73 145.34-8.75 145.34-12.85L145.34-12.85Q145.34-16.75 146.91-19.85 148.49-22.95 151.26-24.78 154.04-26.6 157.64-26.6L157.64-26.6Q159.89-26.6 161.71-25.83 163.54-25.05 164.89-23.9L164.89-23.9 164.89-26 168.99-26 168.99-6.3Q168.99-4.4 169.91-3.83 170.84-3.25 171.94-3.25L171.94-3.25 170.99 0.25Q166.19 0.25 165.19-3.65L165.19-3.65Q164.04-2.05 162.06-0.73 160.09 0.6 157.04 0.6ZM158.04-3.4L158.04-3.4Q159.94-3.4 161.64-4.33 163.34-5.25 164.49-6.65L164.49-6.65 164.49-20.6Q163.14-21.55 161.51-22.13 159.89-22.7 158.09-22.7L158.09-22.7Q155.69-22.7 153.86-21.48 152.04-20.25 150.99-18.07 149.94-15.9 149.94-13L149.94-13Q149.94-10.2 150.99-8.03 152.04-5.85 153.89-4.63 155.74-3.4 158.04-3.4ZM184.94 0.6L184.94 0.6Q181.99 0.6 179.61-0.15 177.24-0.9 175.69-2.1L175.69-2.1 177.59-5.85Q178.89-4.75 180.86-4.03 182.84-3.3 185.09-3.3L185.09-3.3Q187.89-3.3 189.31-4.23 190.74-5.15 190.74-6.6L190.74-6.6Q190.74-7.65 190.21-8.45 189.69-9.25 188.29-10.03 186.89-10.8 184.24-11.7L184.24-11.7Q180.59-12.95 178.76-14.68 176.94-16.4 176.94-19.45L176.94-19.45Q176.94-22.45 179.56-24.53 182.19-26.6 186.84-26.6L186.84-26.6Q189.34-26.6 191.29-26.08 193.24-25.55 194.79-24.75L194.79-24.75 193.54-21.05Q192.19-21.85 190.46-22.35 188.74-22.85 186.64-22.85L186.64-22.85Q184.04-22.85 182.69-21.8 181.34-20.75 181.34-19.5L181.34-19.5Q181.34-18.3 182.39-17.45 183.44-16.6 186.49-15.6L186.49-15.6Q191.44-13.95 193.39-11.95 195.34-9.95 195.34-6.95L195.34-6.95Q195.34-3.45 192.51-1.43 189.69 0.6 184.94 0.6ZM210.43 0.6L210.43 0.6Q206.68 0.6 204.51-1.88 202.33-4.35 202.33-8.95L202.33-8.95 202.33-21.15 197.83-21.15 197.83-25.05 202.43-25.05 203.38-33.25 206.83-33.25 206.83-25.05 214.03-25.05 214.03-21.15 206.83-21.15 206.83-8.6Q206.83-5.7 208.06-4.55 209.28-3.4 210.98-3.4L210.98-3.4Q212.23-3.4 213.36-3.8 214.48-4.2 215.43-4.75L215.43-4.75 216.68-1.15Q215.68-0.55 213.98 0.03 212.28 0.6 210.43 0.6ZM230.58 0.6L230.58 0.6Q224.98 0.6 221.71-2.98 218.43-6.55 218.43-13L218.43-13Q218.43-16.9 219.91-19.98 221.38-23.05 224.03-24.83 226.68-26.6 230.18-26.6L230.18-26.6Q233.93-26.6 236.41-24.98 238.88-23.35 240.13-20.6 241.38-17.85 241.38-14.55L241.38-14.55Q241.38-12.8 241.23-11.15L241.23-11.15 223.03-11.15Q223.48-7.5 225.58-5.45 227.68-3.4 231.13-3.4L231.13-3.4Q233.38-3.4 235.18-3.88 236.98-4.35 238.63-5.1L238.63-5.1 239.68-1.25Q237.88-0.45 235.63 0.08 233.38 0.6 230.58 0.6ZM222.98-14.8L222.98-14.8 237.23-14.8Q237.23-18.6 235.33-20.65 233.43-22.7 230.08-22.7L230.08-22.7Q227.18-22.7 225.28-20.68 223.38-18.65 222.98-14.8ZM251.88 0L247.38 0 247.38-26 251.73-26 251.73-20.35Q252.38-22 253.48-23.43 254.58-24.85 256.23-25.73 257.88-26.6 260.08-26.6L260.08-26.6Q260.83-26.6 261.58-26.53 262.33-26.45 262.83-26.3L262.83-26.3 261.48-21.65Q260.53-22.05 259.23-22.05L259.23-22.05Q257.38-22.05 255.7-21 254.03-19.95 252.95-17.75 251.88-15.55 251.88-12.15L251.88-12.15 251.88 0Z" opacity="1" transform="matrix(1,0,0,1,0,0)" fill="white" class="wordmark-text-0" id="SvgjsPath3831"></path></svg></g></svg></g></svg></g></svg></g><g><svg viewBox="0 0 170.92792473094642 170.92792473094642" height="170.92792473094642" width="170.92792473094642"><g><svg></svg></g><g id="SvgjsG3830"><svg viewBox="0 0 170.92792473094642 170.92792473094642" height="170.92792473094642" width="170.92792473094642"><g><rect width="155.41779822758275" height="155.41779822758275" x="7.7550632516818325" y="7.7550632516818325" fill="black"></rect><rect width="155.41779822758275" height="155.41779822758275" x="15.51012650336366" y="5.329070518200751e-15" fill="black" opacity="0.5"></rect></g><g transform="matrix(1,0,0,1,39.18474944571026,22.1573235762338)"><svg viewBox="0 0 92.5584258395259 126.61327757847882" height="126.61327757847882" width="92.5584258395259"><g><svg xmlns="http://www.w3.org/2000/svg" xmlns:xlink="http://www.w3.org/1999/xlink" version="1.1" x="0" y="0" viewBox="24.668 15.56966041023927 51.00000233514175 69.76433958976074" enable-background="new 0 0 100 100" xml:space="preserve" height="126.61327757847882" width="92.5584258395259" class="icon-dxe-0" data-fill-palette-color="quaternary" id="SvgjsSvg3829"><path fill="black" d="M75.668 23A3.997 3.997 0 0 0 69.685 19.527C67.528 20.761 58.317 24.435 52.681 19.887 41.072 10.522 27.104 19.253 26.516 19.63 25.228 20.453 24.592 21.888 24.705 23.312 24.694 23.431 24.668 23.545 24.668 23.667V81.334A4 4 0 0 0 32.668 81.334V58.739C35.811 57.3 42.375 55.185 47.657 59.447 51.321 62.403 55.594 63.415 59.659 63.415 65.642 63.415 71.177 61.223 73.652 59.807A4 4 0 0 0 75.634 55.831C75.644 55.72 75.667 55.613 75.667 55.5V23zM52.681 53.221C45.729 47.611 37.934 48.494 32.668 50.185V25.4C35.821 23.947 42.363 21.84 47.657 26.113 53.907 31.155 61.928 30.542 67.668 28.896V53.79C64.038 55.222 57.209 56.876 52.681 53.221"></path></svg></g></svg></g></svg></g></svg></g></svg></g><defs><mask></mask></defs></svg><rect width="395.52" height="115.76013171086296" fill="black" stroke="none" visibility="hidden"></rect></g></mask><linearGradient x1="0" x2="1" y1="0.548" y2="0.55" id="897f5153-e7db-4797-996d-753ea3cd242f"><stop stop-color="#ff6cab" offset="0"></stop><stop stop-color="#7366ff" offset="1"></stop></linearGradient><rect width="395.52" height="115.76013171086296" fill="url(#897f5153-e7db-4797-996d-753ea3cd242f)" mask="url(#f59c137f-631f-4eb2-9a46-350ae3ab22cc)" data-fill-palette-color="primary"></rect><mask id="a66d38c9-d4b9-49e2-b9ce-46dd73f69614"><g id="SvgjsG3857"><svg viewBox="0 0 395.52 115.76013171086296" height="115.76013171086296" width="395.52"><g><svg viewBox="0 0 584.0129221556493 170.92792473094642" height="115.76013171086296" width="395.52"><g transform="matrix(1,0,0,1,188.49292215564935,48.26196507497582)"><svg viewBox="0 0 395.52 74.40399458099478" height="74.40399458099478" width="395.52"><g id="SvgjsG3856"><svg viewBox="0 0 395.52 74.40399458099478" height="74.40399458099478" width="395.52" id="SvgjsSvg3855"><g><svg viewBox="0 0 395.52 74.40399458099478" height="74.40399458099478" width="395.52"><g transform="matrix(1,0,0,1,0,0)"><svg width="395.52" viewBox="4.5 -37 258.33 48.6" height="74.40399458099478" data-palette-color="url(#897f5153-e7db-4797-996d-753ea3cd242f)"></svg></g></svg></g></svg></g></svg></g><g><svg viewBox="0 0 170.92792473094642 170.92792473094642" height="170.92792473094642" width="170.92792473094642"><g><svg></svg></g><g id="SvgjsG3854"><svg viewBox="0 0 170.92792473094642 170.92792473094642" height="170.92792473094642" width="170.92792473094642"><g><rect width="155.41779822758275" height="155.41779822758275" x="7.7550632516818325" y="7.7550632516818325" fill="white"></rect><rect width="155.41779822758275" height="155.41779822758275" x="15.51012650336366" y="5.329070518200751e-15" fill="white" opacity="0.5"></rect></g><g transform="matrix(1,0,0,1,39.18474944571026,22.1573235762338)"><svg viewBox="0 0 92.5584258395259 126.61327757847882" height="126.61327757847882" width="92.5584258395259"><g><svg xmlns="http://www.w3.org/2000/svg" xmlns:xlink="http://www.w3.org/1999/xlink" version="1.1" x="0" y="0" viewBox="24.668 15.56966041023927 51.00000233514175 69.76433958976074" enable-background="new 0 0 100 100" xml:space="preserve" height="126.61327757847882" width="92.5584258395259" class="icon-dxe-0" data-fill-palette-color="quaternary" id="SvgjsSvg3853"><path fill="black" d="M75.668 23A3.997 3.997 0 0 0 69.685 19.527C67.528 20.761 58.317 24.435 52.681 19.887 41.072 10.522 27.104 19.253 26.516 19.63 25.228 20.453 24.592 21.888 24.705 23.312 24.694 23.431 24.668 23.545 24.668 23.667V81.334A4 4 0 0 0 32.668 81.334V58.739C35.811 57.3 42.375 55.185 47.657 59.447 51.321 62.403 55.594 63.415 59.659 63.415 65.642 63.415 71.177 61.223 73.652 59.807A4 4 0 0 0 75.634 55.831C75.644 55.72 75.667 55.613 75.667 55.5V23zM52.681 53.221C45.729 47.611 37.934 48.494 32.668 50.185V25.4C35.821 23.947 42.363 21.84 47.657 26.113 53.907 31.155 61.928 30.542 67.668 28.896V53.79C64.038 55.222 57.209 56.876 52.681 53.221"></path></svg></g></svg></g></svg></g></svg></g></svg></g><defs><mask></mask></defs><mask><g id="SvgjsG3852"><svg viewBox="0 0 395.52 115.76013171086296" height="115.76013171086296" width="395.52"><g><svg viewBox="0 0 584.0129221556493 170.92792473094642" height="115.76013171086296" width="395.52"><g transform="matrix(1,0,0,1,188.49292215564935,48.26196507497582)"><svg viewBox="0 0 395.52 74.40399458099478" height="74.40399458099478" width="395.52"><g id="SvgjsG3851"><svg viewBox="0 0 395.52 74.40399458099478" height="74.40399458099478" width="395.52" id="SvgjsSvg3850"><g><svg viewBox="0 0 395.52 74.40399458099478" height="74.40399458099478" width="395.52"><g transform="matrix(1,0,0,1,0,0)"><svg width="395.52" viewBox="4.5 -37 258.33 48.6" height="74.40399458099478" data-palette-color="url(#897f5153-e7db-4797-996d-753ea3cd242f)"><path d="M9.25 0L4.5 0 4.5-35 25.25-35 25.25-30.9 9.25-30.9 9.25-20.2 22.6-20.2 22.6-16.3 9.25-16.3 9.25 0ZM37.15 0.6L37.15 0.6Q34.85 0.6 33-0.28 31.15-1.15 30.07-3.1 29-5.05 29-8.15L29-8.15 29-37 33.5-37 33.5-8.6Q33.5-5.9 34.62-4.6 35.75-3.3 37.75-3.3L37.75-3.3Q38.7-3.3 39.62-3.53 40.55-3.75 41.2-4.05L41.2-4.05 42.3-0.4Q41.4 0 40.07 0.3 38.75 0.6 37.15 0.6ZM55.75 0.6L55.75 0.6Q52.5 0.6 49.84-1.05 47.2-2.7 45.62-5.73 44.05-8.75 44.05-12.85L44.05-12.85Q44.05-16.75 45.62-19.85 47.2-22.95 49.97-24.78 52.75-26.6 56.34-26.6L56.34-26.6Q58.59-26.6 60.42-25.83 62.25-25.05 63.59-23.9L63.59-23.9 63.59-26 67.7-26 67.7-6.3Q67.7-4.4 68.62-3.83 69.55-3.25 70.65-3.25L70.65-3.25 69.7 0.25Q64.9 0.25 63.9-3.65L63.9-3.65Q62.75-2.05 60.77-0.73 58.8 0.6 55.75 0.6ZM56.75-3.4L56.75-3.4Q58.65-3.4 60.34-4.33 62.05-5.25 63.2-6.65L63.2-6.65 63.2-20.6Q61.84-21.55 60.22-22.13 58.59-22.7 56.8-22.7L56.8-22.7Q54.4-22.7 52.57-21.48 50.75-20.25 49.7-18.07 48.65-15.9 48.65-13L48.65-13Q48.65-10.2 49.7-8.03 50.75-5.85 52.59-4.63 54.45-3.4 56.75-3.4ZM85.69 11.6L85.69 11.6Q83.39 11.6 81.22 11.05 79.04 10.5 77.34 9.4L77.34 9.4 78.99 5.5Q80.19 6.45 81.79 7.08 83.39 7.7 85.69 7.7L85.69 7.7Q89.24 7.7 91.27 5.83 93.29 3.95 93.29-0.15L93.29-0.15 93.29-3.35Q92.29-2.15 90.42-1.07 88.54 0 85.94 0L85.94 0Q82.99 0 80.34-1.53 77.69-3.05 76.04-6 74.39-8.95 74.39-13.1L74.39-13.1Q74.39-17 76.02-20.05 77.64-23.1 80.39-24.85 83.14-26.6 86.44-26.6L86.44-26.6Q88.64-26.6 90.44-25.85 92.24-25.1 93.54-24L93.54-24 93.54-26 97.64-26 97.64-0.6Q97.64 3.7 96.14 6.4 94.64 9.1 91.97 10.35 89.29 11.6 85.69 11.6ZM86.94-4L86.94-4Q88.94-4 90.54-4.9 92.14-5.8 93.14-7L93.14-7 93.14-20.6Q92.04-21.4 90.49-22.05 88.94-22.7 86.89-22.7L86.89-22.7Q84.84-22.7 83.04-21.6 81.24-20.5 80.12-18.43 78.99-16.35 78.99-13.35L78.99-13.35Q78.99-10.5 80.12-8.4 81.24-6.3 83.04-5.15 84.84-4 86.94-4ZM110.39 0L105.89 0 105.89-35 112.54-35 122.24-12.85 131.79-35 138.59-35 138.59 0 133.84 0 133.84-28.95 124.49-7.9 119.79-7.9 110.39-28.95 110.39 0ZM157.04 0.6L157.04 0.6Q153.79 0.6 151.14-1.05 148.49-2.7 146.91-5.73 145.34-8.75 145.34-12.85L145.34-12.85Q145.34-16.75 146.91-19.85 148.49-22.95 151.26-24.78 154.04-26.6 157.64-26.6L157.64-26.6Q159.89-26.6 161.71-25.83 163.54-25.05 164.89-23.9L164.89-23.9 164.89-26 168.99-26 168.99-6.3Q168.99-4.4 169.91-3.83 170.84-3.25 171.94-3.25L171.94-3.25 170.99 0.25Q166.19 0.25 165.19-3.65L165.19-3.65Q164.04-2.05 162.06-0.73 160.09 0.6 157.04 0.6ZM158.04-3.4L158.04-3.4Q159.94-3.4 161.64-4.33 163.34-5.25 164.49-6.65L164.49-6.65 164.49-20.6Q163.14-21.55 161.51-22.13 159.89-22.7 158.09-22.7L158.09-22.7Q155.69-22.7 153.86-21.48 152.04-20.25 150.99-18.07 149.94-15.9 149.94-13L149.94-13Q149.94-10.2 150.99-8.03 152.04-5.85 153.89-4.63 155.74-3.4 158.04-3.4ZM184.94 0.6L184.94 0.6Q181.99 0.6 179.61-0.15 177.24-0.9 175.69-2.1L175.69-2.1 177.59-5.85Q178.89-4.75 180.86-4.03 182.84-3.3 185.09-3.3L185.09-3.3Q187.89-3.3 189.31-4.23 190.74-5.15 190.74-6.6L190.74-6.6Q190.74-7.65 190.21-8.45 189.69-9.25 188.29-10.03 186.89-10.8 184.24-11.7L184.24-11.7Q180.59-12.95 178.76-14.68 176.94-16.4 176.94-19.45L176.94-19.45Q176.94-22.45 179.56-24.53 182.19-26.6 186.84-26.6L186.84-26.6Q189.34-26.6 191.29-26.08 193.24-25.55 194.79-24.75L194.79-24.75 193.54-21.05Q192.19-21.85 190.46-22.35 188.74-22.85 186.64-22.85L186.64-22.85Q184.04-22.85 182.69-21.8 181.34-20.75 181.34-19.5L181.34-19.5Q181.34-18.3 182.39-17.45 183.44-16.6 186.49-15.6L186.49-15.6Q191.44-13.95 193.39-11.95 195.34-9.95 195.34-6.95L195.34-6.95Q195.34-3.45 192.51-1.43 189.69 0.6 184.94 0.6ZM210.43 0.6L210.43 0.6Q206.68 0.6 204.51-1.88 202.33-4.35 202.33-8.95L202.33-8.95 202.33-21.15 197.83-21.15 197.83-25.05 202.43-25.05 203.38-33.25 206.83-33.25 206.83-25.05 214.03-25.05 214.03-21.15 206.83-21.15 206.83-8.6Q206.83-5.7 208.06-4.55 209.28-3.4 210.98-3.4L210.98-3.4Q212.23-3.4 213.36-3.8 214.48-4.2 215.43-4.75L215.43-4.75 216.68-1.15Q215.68-0.55 213.98 0.03 212.28 0.6 210.43 0.6ZM230.58 0.6L230.58 0.6Q224.98 0.6 221.71-2.98 218.43-6.55 218.43-13L218.43-13Q218.43-16.9 219.91-19.98 221.38-23.05 224.03-24.83 226.68-26.6 230.18-26.6L230.18-26.6Q233.93-26.6 236.41-24.98 238.88-23.35 240.13-20.6 241.38-17.85 241.38-14.55L241.38-14.55Q241.38-12.8 241.23-11.15L241.23-11.15 223.03-11.15Q223.48-7.5 225.58-5.45 227.68-3.4 231.13-3.4L231.13-3.4Q233.38-3.4 235.18-3.88 236.98-4.35 238.63-5.1L238.63-5.1 239.68-1.25Q237.88-0.45 235.63 0.08 233.38 0.6 230.58 0.6ZM222.98-14.8L222.98-14.8 237.23-14.8Q237.23-18.6 235.33-20.65 233.43-22.7 230.08-22.7L230.08-22.7Q227.18-22.7 225.28-20.68 223.38-18.65 222.98-14.8ZM251.88 0L247.38 0 247.38-26 251.73-26 251.73-20.35Q252.38-22 253.48-23.43 254.58-24.85 256.23-25.73 257.88-26.6 260.08-26.6L260.08-26.6Q260.83-26.6 261.58-26.53 262.33-26.45 262.83-26.3L262.83-26.3 261.48-21.65Q260.53-22.05 259.23-22.05L259.23-22.05Q257.38-22.05 255.7-21 254.03-19.95 252.95-17.75 251.88-15.55 251.88-12.15L251.88-12.15 251.88 0Z" opacity="1" transform="matrix(1,0,0,1,0,0)" fill="black" class="wordmark-text-0" id="SvgjsPath3849"></path></svg></g></svg></g></svg></g></svg></g><g><svg viewBox="0 0 170.92792473094642 170.92792473094642" height="170.92792473094642" width="170.92792473094642"><g><svg></svg></g><g id="SvgjsG3848"><svg viewBox="0 0 170.92792473094642 170.92792473094642" height="170.92792473094642" width="170.92792473094642"><g><rect width="155.41779822758275" height="155.41779822758275" x="7.7550632516818325" y="7.7550632516818325" fill="black"></rect><rect width="155.41779822758275" height="155.41779822758275" x="15.51012650336366" y="5.329070518200751e-15" fill="black" opacity="0.5"></rect></g><g transform="matrix(1,0,0,1,39.18474944571026,22.1573235762338)"><svg viewBox="0 0 92.5584258395259 126.61327757847882" height="126.61327757847882" width="92.5584258395259"><g><svg xmlns="http://www.w3.org/2000/svg" xmlns:xlink="http://www.w3.org/1999/xlink" version="1.1" x="0" y="0" viewBox="24.668 15.56966041023927 51.00000233514175 69.76433958976074" enable-background="new 0 0 100 100" xml:space="preserve" height="126.61327757847882" width="92.5584258395259" class="icon-dxe-0" data-fill-palette-color="quaternary" id="SvgjsSvg3847"><path fill="black" d="M75.668 23A3.997 3.997 0 0 0 69.685 19.527C67.528 20.761 58.317 24.435 52.681 19.887 41.072 10.522 27.104 19.253 26.516 19.63 25.228 20.453 24.592 21.888 24.705 23.312 24.694 23.431 24.668 23.545 24.668 23.667V81.334A4 4 0 0 0 32.668 81.334V58.739C35.811 57.3 42.375 55.185 47.657 59.447 51.321 62.403 55.594 63.415 59.659 63.415 65.642 63.415 71.177 61.223 73.652 59.807A4 4 0 0 0 75.634 55.831C75.644 55.72 75.667 55.613 75.667 55.5V23zM52.681 53.221C45.729 47.611 37.934 48.494 32.668 50.185V25.4C35.821 23.947 42.363 21.84 47.657 26.113 53.907 31.155 61.928 30.542 67.668 28.896V53.79C64.038 55.222 57.209 56.876 52.681 53.221"></path></svg></g></svg></g></svg></g></svg></g></svg></g><defs><mask></mask></defs></svg><rect width="395.52" height="115.76013171086296" fill="black" stroke="none" visibility="hidden"></rect></g></mask></svg><rect width="395.52" height="115.76013171086296" fill="black" stroke="none" visibility="hidden"></rect></g></mask><linearGradient x1="0" x2="1" y1="0.548" y2="0.55" id="3539dcaa-9461-443f-9fc0-b3ec1ac2be5f"><stop stop-color="#ff6cab" offset="0"></stop><stop stop-color="#7366ff" offset="1"></stop></linearGradient><rect width="395.52" height="115.76013171086296" fill="url(#3539dcaa-9461-443f-9fc0-b3ec1ac2be5f)" mask="url(#a66d38c9-d4b9-49e2-b9ce-46dd73f69614)" data-fill-palette-color="accent"></rect></svg><rect width="395.52" height="115.76013171086296" fill="none" stroke="none" visibility="hidden"></rect></g></svg></g></svg>